<?xml version="1.0" standalone="no"?>
<!DOCTYPE svg PUBLIC "-//W3C//DTD SVG 20010904//EN"
 "http://www.w3.org/TR/2001/REC-SVG-20010904/DTD/svg10.dtd">
<svg version="1.0" xmlns="http://www.w3.org/2000/svg"
 width="1024.000000pt" height="1024.000000pt" viewBox="0 0 1024.000000 1024.000000"
 preserveAspectRatio="xMidYMid meet">
<metadata>
Created by potrace 1.14, written by Peter Selinger 2001-2017
</metadata>
<g transform="translate(0.000000,1024.000000) scale(0.100000,-0.100000)"
fill="#000000" stroke="none">
<path d="M0 5120 l0 -5120 5120 0 5120 0 0 5120 0 5120 -5120 0 -5120 0 0
-5120z m3505 3657 c11 -2 26 0 33 6 8 6 12 6 12 -3 0 -8 4 -9 13 -3 6 5 23 8
37 6 45 -6 110 -6 116 -1 3 3 20 2 39 -2 19 -4 33 -4 30 0 -6 10 267 7 284 -4
10 -7 12 -6 6 4 -6 9 -4 11 4 5 22 -13 161 -18 161 -6 0 6 9 3 19 -6 11 -9 17
-21 14 -26 -3 -6 -1 -7 6 -3 6 4 9 12 6 17 -10 15 21 10 35 -5 11 -14 44 -11
35 3 -2 4 2 8 10 8 11 0 12 -5 3 -21 -11 -21 -11 -21 11 -2 11 11 21 16 22 13
3 -27 1 -98 -2 -102 -3 -2 -6 10 -7 27 -4 46 -12 48 -13 2 l-2 -39 -7 40 -7
40 -2 -40 c-2 -31 -4 -36 -10 -20 -5 11 -6 25 -4 31 6 16 -14 27 -23 13 -5 -8
-3 -9 6 -4 9 5 11 3 6 -6 -3 -8 -9 -21 -12 -31 -3 -9 -14 -18 -25 -21 -13 -3
-17 -1 -12 6 4 7 -1 6 -10 -2 -14 -11 -17 -11 -17 0 0 9 -3 10 -8 3 -5 -8 -85
-11 -252 -12 -670 -2 -724 -5 -865 -50 -63 -19 -191 -100 -234 -146 -13 -14
-28 -23 -33 -20 -5 3 -17 -1 -26 -9 -29 -24 -51 -27 -61 -9 -8 12 -10 13 -11
3 0 -8 -2 -12 -5 -9 -3 3 -2 13 1 23 6 15 8 15 20 -6 7 -13 13 -19 13 -14 1
21 -18 38 -43 41 -23 2 -26 -1 -26 -27 0 -17 4 -28 9 -24 5 3 12 1 16 -5 4 -6
11 -7 17 -4 6 4 8 2 5 -4 -4 -5 -15 -9 -25 -8 -9 2 -20 -1 -23 -7 -4 -5 -7 15
-7 46 1 31 4 56 7 55 15 -3 41 15 41 28 0 31 72 112 144 160 92 62 240 122
271 110 8 -3 15 0 15 5 0 6 9 9 19 6 10 -2 24 -1 30 2 12 8 222 6 256 -2z
m3892 7 c-3 -3 -12 -4 -19 -1 -8 3 -5 6 6 6 11 1 17 -2 13 -5z m-81 -16 c4 -4
13 -3 21 3 9 8 13 8 13 1 0 -6 9 -9 20 -7 11 2 27 -3 35 -11 8 -9 15 -11 15
-5 0 18 28 13 49 -8 11 -11 23 -16 27 -13 4 4 4 2 1 -4 -3 -5 -20 -9 -36 -8
-18 1 -28 -2 -25 -8 3 -5 12 -7 18 -5 7 3 13 -1 13 -8 0 -7 -6 -11 -13 -8 -9
3 -12 -2 -9 -16 2 -12 0 -19 -6 -16 -5 4 -9 2 -9 -3 0 -6 -106 -10 -265 -10
-146 0 -265 4 -265 8 0 13 27 19 38 8 6 -6 12 -6 17 3 5 7 4 10 -2 6 -6 -4
-16 0 -22 7 -8 10 -9 16 -1 21 5 3 10 1 10 -6 0 -7 3 -9 6 -6 4 4 1 13 -6 22
-11 13 -15 13 -29 2 -30 -26 -41 -29 -41 -12 0 9 4 14 9 10 10 -5 25 12 26 30
1 6 7 9 14 7 9 -2 11 3 7 15 -5 16 -4 16 6 3 13 -15 61 -20 73 -8 4 4 -5 5
-19 4 -15 -2 -29 1 -33 7 -3 6 -1 7 5 3 7 -4 12 -4 12 1 0 10 336 11 346 1z
m-465 -22 c5 3 7 9 5 13 -3 4 1 8 8 8 7 0 13 -6 13 -13 0 -7 -5 -10 -10 -7 -6
4 -7 1 -2 -7 6 -10 11 -9 22 6 13 17 13 17 9 -6 -2 -14 -9 -24 -15 -22 -15 3
-26 -27 -14 -39 6 -6 20 -1 39 13 16 12 23 15 17 7 -7 -9 -11 -19 -8 -22 3 -4
2 -5 -2 -2 -4 3 -13 -5 -20 -17 -7 -13 -12 -17 -13 -9 0 11 -3 11 -15 1 -12
-10 -16 -7 -25 16 -21 60 -30 71 -24 34 5 -32 4 -34 -9 -15 -8 10 -12 26 -9
34 4 10 1 12 -9 7 -8 -4 -5 -1 5 8 10 8 23 13 27 10 5 -3 10 3 10 13 1 17 2
17 6 0 2 -9 9 -15 14 -11z m-1476 -7 c-5 -15 -4 -19 4 -15 6 4 11 15 12 24 0
14 2 13 9 -3 6 -14 9 -15 10 -5 1 10 4 9 10 -5 l9 -20 0 20 c1 16 3 17 10 6 6
-9 4 -19 -5 -28 -8 -8 -11 -20 -7 -26 3 -7 2 -9 -2 -4 -5 4 -19 -2 -31 -14
-14 -13 -24 -17 -29 -10 -3 7 -2 10 3 9 6 -2 10 2 10 7 0 6 -4 9 -8 8 -5 -2
-7 6 -5 17 2 11 0 22 -6 25 -5 4 -9 11 -9 16 0 6 5 7 10 4 6 -3 10 -1 10 4 0
6 3 11 6 11 3 0 2 -10 -1 -21z m241 13 c-2 -4 -1 -14 5 -22 7 -13 9 -13 9 1 0
9 7 16 15 16 19 0 20 2 -18 -35 -22 -21 -34 -27 -34 -18 0 8 3 14 6 13 7 -2
11 8 11 26 0 8 -4 7 -10 -3 -9 -13 -10 -13 -10 0 0 13 -2 13 -9 1 -5 -8 -8
-23 -5 -34 2 -11 0 -16 -4 -13 -4 4 -7 13 -7 19 0 7 -8 12 -17 12 -10 0 -18
-4 -17 -10 1 -5 5 -9 11 -7 5 1 7 -2 3 -8 -5 -8 -11 -8 -20 0 -11 9 -14 5 -17
-17 l-3 -28 -6 32 c-3 18 -1 31 4 30 5 -1 12 5 14 13 4 13 3 13 -6 0 -10 -13
-11 -13 -12 0 0 9 -2 11 -5 3 -3 -7 -11 -11 -17 -9 -7 1 -9 1 -6 -1 4 -2 5
-14 3 -26 -4 -21 -4 -21 5 -2 9 18 10 18 8 -6 0 -14 -7 -26 -13 -26 -7 0 -13
3 -12 6 0 3 -1 17 -2 31 -2 21 -4 20 -10 -10 l-7 -35 -2 32 c0 17 3 34 9 38 5
3 7 12 4 20 -4 10 0 13 18 10 46 -9 122 -5 134 8 10 9 16 9 10 -1z m230 -13
c14 -15 15 -20 4 -17 -8 2 -14 -3 -12 -10 1 -8 -2 -11 -8 -7 -8 5 -8 11 0 20
7 8 7 15 1 19 -5 4 -12 -2 -16 -13 -3 -10 -16 -27 -28 -37 -22 -19 -22 -19 -4
2 24 29 21 41 -4 18 -11 -10 -20 -14 -19 -9 5 22 -1 27 -17 14 -10 -9 -14 -9
-10 -2 12 19 -61 8 -87 -13 -12 -11 -10 -7 5 8 15 14 24 30 21 34 -4 5 0 3 10
-4 11 -9 18 -10 23 -2 3 6 11 8 16 4 18 -11 69 -11 69 0 0 6 4 5 9 -2 7 -11 9
-11 14 2 8 20 10 20 33 -5z m-1406 -39 c-4 -16 -6 -31 -3 -33 2 -3 -1 -8 -7
-12 -6 -3 -10 -3 -9 2 1 4 -1 16 -5 25 -4 9 -6 25 -3 35 3 11 5 7 7 -12 2 -29
2 -30 9 -5 5 14 3 31 -3 40 -9 13 -9 13 6 2 12 -10 14 -20 8 -42z m76 6 c1
-10 0 -15 -3 -12 -4 3 -11 2 -18 -4 -8 -6 -11 -2 -11 14 0 28 28 29 32 2z
m2257 9 c4 -8 3 -16 -1 -19 -4 -3 -9 4 -9 15 -2 23 3 25 10 4z m-1093 -9 c0
-2 -8 -10 -17 -17 -16 -13 -17 -12 -4 4 13 16 21 21 21 13z m1957 -11 c0 -8
-4 -12 -9 -9 -5 3 -6 10 -3 15 9 13 12 11 12 -6z m-1817 1 c0 -2 -8 -10 -17
-17 -16 -13 -17 -12 -4 4 13 16 21 21 21 13z m-1483 -38 c-3 -8 -6 -5 -6 6 -1
11 2 17 5 13 3 -3 4 -12 1 -19z m3153 -210 c88 -28 114 -43 168 -91 114 -106
158 -244 145 -463 l-6 -111 -73 -6 c-39 -3 -83 -11 -96 -18 l-23 -13 30 -7
c17 -4 53 -7 80 -8 28 -1 60 -4 73 -7 l23 -7 -3 -1491 -3 -1491 -23 -70 c-22
-66 -58 -129 -92 -165 -8 -8 -24 -27 -36 -42 -31 -39 -166 -123 -221 -138 -36
-9 -213 -11 -738 -9 -379 2 -1293 2 -2030 1 -940 -2 -1356 1 -1395 9 -125 25
-267 133 -319 244 -59 126 -56 22 -54 1855 l2 1685 25 72 c44 131 99 187 244
256 l67 32 925 5 c509 3 1452 4 2095 2 1150 -3 1171 -4 1235 -24z m617 -270
c-3 -8 -6 -5 -6 6 -1 11 2 17 5 13 3 -3 4 -12 1 -19z m423 12 c0 -5 -4 -10
-10 -10 -5 0 -10 5 -10 10 0 6 5 10 10 10 6 0 10 -4 10 -10z m-6504 -1829 c-1
-24 -4 -27 -18 -20 -10 6 -18 12 -18 16 0 4 29 30 36 33 1 0 1 -13 0 -29z
m6244 -1390 c0 -3 -5 0 -12 7 -15 15 -32 16 -22 1 4 -8 0 -8 -15 0 -24 13 -28
23 -6 15 11 -5 13 -2 9 11 -6 14 -1 13 19 -6 15 -12 27 -25 27 -28z m35 -21
c3 -5 1 -10 -4 -10 -6 0 -11 5 -11 10 0 6 2 10 4 10 3 0 8 -4 11 -10z m122
-186 c35 -39 42 -57 18 -48 -8 4 -15 10 -15 16 0 5 -6 16 -12 23 -31 34 -38
45 -32 45 4 0 23 -16 41 -36z m-6151 -149 c-20 -30 -43 -58 -51 -61 -8 -4 -15
-11 -15 -17 0 -16 -31 -47 -47 -47 -8 0 -11 5 -8 10 4 6 11 8 16 5 5 -4 9 1 9
9 0 9 4 16 9 16 9 0 24 38 22 54 -3 13 20 36 30 30 5 -3 9 2 9 11 0 9 4 14 9
11 5 -3 16 6 26 20 9 14 19 23 22 21 2 -3 -11 -31 -31 -62z m6808 -32 c-6 -2
-28 1 -50 6 -21 5 -31 9 -21 10 9 1 17 5 17 10 0 5 14 2 32 -7 18 -8 28 -17
22 -19z m-938 -41 c-4 -3 -14 2 -24 12 -16 18 -16 18 6 6 13 -6 21 -14 18 -18z
m39 -32 c3 -5 1 -10 -4 -10 -6 0 -11 5 -11 10 0 6 2 10 4 10 3 0 8 -4 11 -10z
m45 -48 c0 -8 3 -13 6 -9 9 9 104 -76 104 -94 0 -16 -22 -21 -31 -8 -7 11 -9
11 -9 1 0 -9 -10 -6 -29 10 -16 13 -25 27 -21 32 5 5 -3 20 -16 35 -14 14 -29
33 -34 43 -8 13 -6 15 10 11 11 -3 20 -12 20 -21z m-6066 3 c-4 -8 -9 -15 -13
-15 -4 0 -8 7 -8 15 0 8 6 15 13 15 8 0 11 -6 8 -15z m6589 -28 c9 -4 16 -10
15 -14 -1 -4 3 -18 10 -30 19 -34 6 -28 -36 18 -46 52 -65 83 -31 53 13 -12
32 -24 42 -27z m-6650 -7 c-3 -11 0 -20 6 -20 6 0 11 8 12 18 0 10 3 12 6 5 2
-7 -5 -25 -16 -39 -12 -15 -21 -31 -21 -37 0 -5 -13 -23 -30 -38 -16 -16 -53
-60 -81 -99 -47 -66 -69 -84 -69 -59 0 5 -5 7 -11 3 -8 -4 -8 0 0 15 7 11 16
21 21 21 6 0 10 6 10 13 0 20 54 96 144 203 33 40 36 41 29 14z m-493 -4 c0
-3 -4 -8 -10 -11 -5 -3 -10 -1 -10 4 0 6 5 11 10 11 6 0 10 -2 10 -4z m880
-38 c0 -6 -7 -7 -16 -4 -11 4 -15 2 -11 -8 4 -10 1 -13 -7 -10 -22 8 -8 43 15
37 10 -3 19 -10 19 -15z m110 3 c0 -25 -33 -96 -70 -151 -36 -53 -36 -58 -10
-62 32 -5 26 -21 -13 -40 -20 -10 -44 -32 -53 -50 -9 -18 -20 -35 -24 -38 -7
-5 -86 -134 -110 -180 -13 -24 -12 -24 6 -10 10 8 29 25 41 37 23 24 53 31 53
13 0 -5 -3 -10 -7 -10 -5 0 -25 -16 -46 -35 -21 -19 -43 -32 -50 -30 -7 3 -22
-10 -35 -28 -58 -83 -152 -226 -152 -231 0 -3 45 -6 100 -6 96 0 100 -1 91
-19 -8 -15 -22 -19 -68 -19 -152 0 -145 2 -181 -50 -57 -82 -132 -201 -132
-211 0 -5 6 -11 13 -14 7 -3 0 -9 -15 -15 -15 -7 -48 -42 -77 -84 -28 -40 -76
-110 -108 -155 -31 -45 -68 -102 -82 -126 -73 -127 -98 -167 -134 -219 -22
-32 -44 -55 -49 -52 -5 3 -5 11 1 18 6 7 8 15 5 19 -13 12 7 46 24 41 12 -4
13 -3 4 3 -10 7 -3 26 27 81 22 40 42 86 46 103 4 17 13 33 20 35 8 3 44 51
80 107 37 56 85 128 106 160 43 65 48 81 20 72 -10 -3 -59 -6 -107 -6 -166 -2
-218 1 -208 10 10 10 284 20 284 11 0 -16 72 4 86 24 19 27 154 247 154 251 0
6 -63 19 -95 21 -16 1 -50 2 -74 3 -83 2 -32 13 90 20 l122 6 53 90 c29 50 66
108 81 130 15 22 31 49 34 60 4 11 48 81 97 155 64 94 88 137 79 142 -8 5 -9
8 -1 8 7 0 27 24 45 53 19 28 41 60 49 69 8 9 29 39 45 67 32 54 45 63 45 32z
m-200 1 c0 -9 -45 -10 -53 -2 -3 3 8 6 24 7 16 1 29 -1 29 -5z m5980 -77 c7
-8 9 -15 6 -15 -4 0 -14 7 -22 15 -9 8 -11 15 -6 15 5 0 15 -7 22 -15z m142
-132 c23 -10 35 -20 31 -29 -4 -11 -10 -11 -34 2 -24 12 -21 6 21 -38 27 -29
50 -56 50 -59 0 -4 6 -14 13 -21 7 -7 24 -29 37 -48 45 -65 72 -80 140 -80 42
0 144 -19 137 -26 -7 -7 -51 -7 -122 0 l-70 7 32 -33 c17 -18 33 -40 35 -48 2
-8 9 -21 16 -28 6 -7 12 -22 12 -32 0 -10 4 -22 10 -25 6 -3 7 1 4 12 -4 15
-3 14 7 -2 8 -11 14 -23 14 -27 0 -3 9 -17 20 -30 29 -35 31 -57 2 -28 -39 41
-127 141 -212 241 -44 52 -82 96 -85 99 -3 3 -22 28 -42 55 -20 28 -50 63 -67
79 -31 30 -42 75 -18 77 10 0 10 2 0 6 -7 2 -13 9 -13 15 0 6 10 3 23 -6 12
-9 39 -24 59 -33z m465 1 c-3 -3 -12 -4 -19 -1 -8 3 -5 6 6 6 11 1 17 -2 13
-5z m-5567 -23 c169 -13 3880 -4 3997 10 145 18 240 -7 331 -87 86 -75 76 -52
329 -749 58 -159 133 -369 168 -465 34 -96 94 -264 134 -374 78 -219 87 -275
52 -351 -22 -49 -89 -111 -148 -137 -44 -20 -78 -20 -2926 -19 -2031 1 -2893
5 -2922 12 -124 34 -214 137 -215 245 0 41 59 220 173 524 30 80 94 253 142
385 48 132 122 326 163 430 41 105 85 222 99 260 69 193 127 257 288 317 53
20 76 20 335 -1z m5245 -11 c3 -5 -3 -10 -14 -10 -11 0 -23 5 -26 10 -3 6 3
10 14 10 11 0 23 -4 26 -10z m-6754 -28 c-5 -9 -19 -26 -32 -37 l-22 -20 13
25 c11 21 38 49 48 50 1 0 -2 -8 -7 -18z m-56 -62 c3 -5 2 -10 -4 -10 -5 0
-13 5 -16 10 -3 6 -2 10 4 10 5 0 13 -4 16 -10z m7269 -49 c-7 -7 -44 31 -38
41 3 4 14 -2 24 -14 10 -13 16 -25 14 -27z m-7316 -13 c-19 -24 -49 -65 -68
-93 -18 -27 -55 -71 -81 -97 -26 -26 -49 -52 -51 -58 -5 -17 -122 -159 -130
-160 -4 0 -5 7 -2 15 9 21 -2 19 -26 -7 -36 -39 -21 -5 21 47 22 28 58 76 80
107 21 31 63 83 92 115 29 32 68 77 86 100 20 27 39 42 51 40 10 -1 19 2 19 7
-1 10 21 26 35 26 4 0 -7 -19 -26 -42z m152 -118 c0 -5 -10 -10 -22 -9 -22 0
-22 1 -3 9 11 5 21 9 23 9 1 1 2 -3 2 -9z m6498 -11 c2 -5 7 -7 12 -4 5 3 7
-3 6 -12 -2 -15 -13 -17 -72 -15 -38 1 -78 4 -89 6 -11 2 -26 -2 -34 -8 -12
-9 -14 -8 -9 5 4 11 1 16 -9 15 -9 0 -18 4 -20 11 -3 8 11 13 39 15 67 5 173
-3 176 -13z m62 -25 c0 -2 -7 -4 -15 -4 -8 0 -15 4 -15 10 0 5 7 7 15 4 8 -4
15 -8 15 -10z m521 -328 c12 -21 17 -36 10 -32 -9 6 -10 0 -5 -21 l6 -28 -30
35 c-17 19 -31 38 -32 42 0 4 -17 19 -37 33 -21 14 -31 25 -24 25 11 0 10 5
-4 20 -13 15 -14 20 -5 20 11 0 11 3 2 12 -7 7 -12 16 -12 21 0 17 110 -89
131 -127z m-673 85 c24 -20 141 -33 253 -27 51 3 66 1 66 -9 0 -8 -4 -12 -9
-9 -4 3 -8 2 -8 -3 0 -4 -44 -8 -97 -7 -54 0 -108 -3 -120 -8 -13 -4 -25 -3
-28 2 -4 6 -10 10 -16 10 -28 0 141 -267 174 -275 12 -3 60 -6 107 -7 66 -2
85 -6 85 -18 0 -9 -13 -15 -37 -18 -31 -3 -37 -1 -32 12 8 20 0 20 -20 0 -9
-8 -16 -11 -16 -5 0 6 -10 10 -22 10 -17 -1 -19 -2 -5 -6 27 -7 20 -26 -8 -21
-14 3 -25 4 -25 2 0 -6 105 -158 167 -241 29 -40 53 -75 53 -78 0 -3 29 -47
65 -99 36 -52 65 -99 65 -105 0 -6 4 -11 9 -11 5 0 12 -8 15 -17 4 -10 -8 -3
-25 15 -19 20 -34 30 -38 23 -9 -13 -78 70 -155 186 -14 21 -44 63 -66 93 -22
30 -65 92 -94 136 -61 92 -68 98 -110 97 -19 0 -33 7 -37 16 -9 22 -2 31 26
31 24 0 23 2 -19 63 -68 98 -139 242 -131 266 8 25 7 25 33 2z m467 -31 c3 -5
1 -10 -4 -10 -6 0 -11 5 -11 10 0 6 2 10 4 10 3 0 8 -4 11 -10z m-7354 -23
c-10 -9 -11 -8 -5 6 3 10 9 15 12 12 3 -3 0 -11 -7 -18z m-26 -7 c-3 -5 -11
-10 -16 -10 -6 0 -7 5 -4 10 3 6 11 10 16 10 6 0 7 -4 4 -10z m-66 -27 c-8
-10 -20 -22 -27 -26 -7 -5 -10 -12 -7 -18 4 -5 1 -9 -4 -9 -6 0 -11 4 -11 8 0
12 43 62 53 62 5 0 3 -8 -4 -17z m2 -36 c-10 -9 -11 -8 -5 6 3 10 9 15 12 12
3 -3 0 -11 -7 -18z m7797 -166 c3 -9 -5 -7 -22 4 -14 10 -26 22 -26 27 0 13
43 -15 48 -31z m-385 -61 c-3 -11 -8 -20 -12 -20 -4 0 -7 9 -7 20 0 11 6 20
12 20 7 0 10 -8 7 -20z m-7313 0 c0 -5 -5 -10 -11 -10 -5 0 -7 5 -4 10 3 6 8
10 11 10 2 0 4 -4 4 -10z m7340 -6 c0 -8 -5 -12 -10 -9 -6 4 -8 11 -5 16 9 14
15 11 15 -7z m134 8 c3 -5 -1 -9 -9 -9 -8 0 -12 4 -9 9 3 4 7 8 9 8 2 0 6 -4
9 -8z m-249 -387 c-25 -8 -115 -11 -115 -4 0 5 28 9 63 8 34 0 58 -2 52 -4z
m470 -481 c9 -15 12 -23 6 -20 -11 7 -35 46 -28 46 3 0 12 -12 22 -26z m-6951
-460 c27 -34 130 -91 211 -116 18 -5 1177 -9 2890 -9 2532 0 2866 2 2910 16
68 20 97 20 94 -2 -4 -48 5 -52 15 -8 9 40 21 59 57 93 25 23 50 42 54 42 13
0 -4 -201 -21 -253 -19 -56 -97 -146 -161 -184 -24 -14 -71 -34 -104 -44 -58
-18 -151 -19 -2858 -20 l-2798 -2 -74 28 c-59 23 -86 41 -134 89 -90 90 -115
158 -128 349 -4 68 6 72 47 21z"/>
<path d="M4246 8757 c3 -10 9 -15 12 -12 3 3 0 11 -7 18 -10 9 -11 8 -5 -6z"/>
<path d="M2800 8446 c0 -8 4 -17 9 -20 5 -4 7 3 4 14 -6 23 -13 26 -13 6z"/>
<path d="M7185 8749 c-3 -4 2 -6 10 -5 21 3 28 13 10 13 -9 0 -18 -4 -20 -8z"/>
<path d="M7006 8712 c-3 -5 1 -9 9 -9 8 0 12 4 9 9 -3 4 -7 8 -9 8 -2 0 -6 -4
-9 -8z"/>
<path d="M7363 8696 c0 -15 22 -15 34 0 4 5 4 6 -1 2 -5 -4 -14 -3 -21 2 -8 7
-12 5 -12 -4z"/>
<path d="M6960 8693 c0 -6 6 -15 13 -20 17 -11 57 -12 51 -1 -3 5 -9 7 -12 4
-3 -3 -11 -1 -19 5 -7 6 -13 8 -13 3 0 -5 -5 -2 -10 6 -6 9 -10 10 -10 3z"/>
<path d="M7406 8668 c3 -5 10 -6 15 -3 13 9 11 12 -6 12 -8 0 -12 -4 -9 -9z"/>
<path d="M6834 8717 c3 -11 9 -30 12 -43 3 -13 10 -21 16 -18 5 3 4 11 -2 19
-7 8 -9 24 -6 37 3 13 3 17 0 9 -5 -11 -8 -11 -16 0 -7 11 -8 9 -4 -4z"/>
<path d="M5381 8717 c-16 -16 7 -41 25 -26 8 6 14 15 14 19 0 14 -27 19 -39 7z"/>
<path d="M3469 8120 c-1 -104 -2 -196 -3 -202 -1 -15 45 -22 80 -14 23 6 24
11 24 81 l0 75 39 0 c21 0 53 3 70 6 l31 7 0 -86 0 -85 43 3 c23 2 45 4 50 4
4 1 7 89 7 196 l0 195 -32 0 c-18 0 -43 3 -55 6 -22 6 -23 4 -23 -50 0 -32 5
-66 10 -77 10 -18 7 -19 -65 -19 l-75 0 0 75 0 75 -50 0 -50 0 -1 -190z"/>
<path d="M4234 8302 c-21 -3 -21 -6 -16 -190 2 -103 9 -193 14 -199 6 -7 29
-13 51 -13 l40 0 -5 115 c-3 63 -4 115 -2 115 3 0 22 -37 45 -82 44 -92 61
-113 81 -105 7 3 31 49 53 104 l40 98 5 -125 5 -125 40 3 c22 2 42 6 45 9 9 9
-1 378 -10 387 -5 5 -26 9 -47 8 -47 -2 -81 -38 -114 -121 -12 -31 -25 -60
-29 -64 -4 -5 -15 13 -24 41 -25 75 -71 142 -98 143 -13 0 -30 2 -38 3 -8 1
-25 0 -36 -2z"/>
<path d="M4688 8299 c-16 -9 -16 -13 -4 -37 8 -15 31 -47 53 -72 68 -80 66
-75 46 -107 -9 -15 -34 -50 -55 -78 -20 -27 -41 -62 -47 -77 -11 -30 -1 -38
49 -38 24 0 35 10 71 65 24 36 46 62 49 57 4 -4 26 -31 49 -59 41 -50 45 -53
89 -53 79 0 82 11 25 75 -28 31 -64 75 -81 99 l-31 42 70 82 c75 88 75 91 4
105 -37 7 -45 2 -73 -44 -12 -20 -29 -43 -38 -50 -18 -14 -15 -17 -57 56 -21
35 -29 40 -63 42 -21 2 -47 -2 -56 -8z"/>
<path d="M6325 8290 c-82 -39 -115 -84 -115 -158 0 -129 122 -235 229 -199 86
30 161 120 161 193 -1 38 -31 103 -61 131 -58 53 -145 67 -214 33z"/>
<path d="M6823 8297 c-40 -23 -95 -79 -109 -113 -24 -58 -18 -116 19 -170 44
-64 86 -86 159 -82 171 12 249 213 126 324 -55 51 -144 70 -195 41z"/>
<path d="M7326 8298 c-82 -22 -146 -124 -131 -207 10 -53 50 -116 90 -141 79
-49 205 -15 260 69 52 78 51 132 -6 210 -50 70 -122 93 -213 69z"/>
<path d="M3852 8258 l3 -43 58 -3 57 -3 0 -149 c0 -93 4 -150 10 -151 6 0 27
-1 48 -2 l37 0 3 151 3 151 52 3 52 3 3 43 3 42 -166 0 -166 0 3 -42z"/>
<path d="M5428 7695 c-2 -3 -157 -5 -344 -6 -395 -3 -754 -13 -941 -29 -216
-17 -354 -68 -496 -181 -120 -97 -185 -194 -264 -394 l-27 -70 -6 -840 c-3
-462 -2 -883 1 -935 12 -164 72 -306 196 -457 45 -55 160 -141 248 -187 140
-73 31 -68 1544 -73 1552 -5 1436 -11 1615 80 216 110 365 323 405 577 6 40
11 397 12 925 2 980 7 911 -86 1100 -97 197 -228 319 -429 399 -110 44 -200
56 -511 66 -159 6 -297 12 -305 15 -20 6 -606 15 -612 10z m507 -185 c325 -5
626 -14 669 -20 129 -19 272 -77 330 -135 14 -14 30 -25 36 -25 5 0 10 -4 10
-8 0 -5 12 -15 26 -22 44 -24 105 -125 151 -253 31 -85 51 -261 49 -437 -1
-138 15 -128 -208 -129 l-158 -1 -1 33 c-1 17 -1 95 -1 172 l1 140 138 6 c76
3 139 7 141 8 11 7 -3 32 -20 35 -38 9 -188 13 -188 6 0 -4 -12 -7 -27 -6 -21
1 -31 -6 -41 -26 -12 -26 -42 -30 -42 -5 0 6 -3 8 -6 4 -3 -3 -3 -11 2 -18 4
-7 7 -64 6 -128 -2 -82 2 -117 10 -124 10 -7 10 -10 1 -14 -7 -2 -13 -16 -13
-29 0 -57 -10 -62 -132 -63 -83 -1 -119 -6 -137 -17 -17 -12 -21 -12 -16 -3 6
11 5 12 -5 2 -8 -7 -11 -16 -7 -19 4 -4 66 -8 139 -9 73 -1 136 -3 141 -3 4
-1 7 -20 7 -41 0 -45 15 -62 24 -28 5 18 8 20 16 7 7 -11 10 -6 10 22 0 20 5
40 10 43 13 8 315 14 342 7 17 -4 18 -15 16 -191 l-3 -186 -175 -3 c-154 -2
-176 0 -187 14 -10 14 -15 15 -27 5 -10 -8 -66 -15 -156 -18 -77 -3 -143 -11
-147 -16 -3 -6 -2 -7 4 -4 5 3 10 0 10 -8 0 -20 -21 -13 -29 10 -5 18 -6 18
-7 -3 -1 -13 -5 -21 -10 -17 -5 3 -12 2 -15 -3 -2 -4 10 -8 27 -9 18 -1 70 -4
117 -7 125 -7 194 -7 408 0 l192 5 0 -355 c0 -325 -2 -365 -21 -454 -26 -119
-27 -122 -88 -189 -11 -12 -27 -33 -36 -47 -10 -14 -22 -26 -28 -26 -5 0 -2 9
7 19 11 12 14 21 7 26 -6 3 -11 1 -11 -6 0 -7 -8 -6 -24 4 -22 15 -25 15 -39
-1 -8 -9 -18 -27 -21 -39 -4 -13 -14 -23 -22 -23 -17 0 -19 17 -3 22 14 5 22
58 8 58 -5 0 -9 -5 -9 -11 0 -5 -4 -7 -10 -4 -5 3 -10 1 -10 -4 0 -6 -4 -11
-10 -11 -24 0 -6 20 36 40 43 21 46 21 58 5 10 -14 15 -15 21 -5 4 7 2 16 -6
21 -19 11 14 24 38 14 16 -6 15 -8 -7 -25 -14 -10 -21 -22 -17 -27 5 -4 13 -1
18 7 8 11 12 12 15 3 4 -10 8 -10 19 0 9 9 10 14 1 20 -8 5 -7 9 3 16 14 9 7
31 -10 31 -6 0 -7 -4 -4 -10 3 -5 2 -10 -4 -10 -5 0 -12 4 -15 9 -8 12 -46 2
-46 -11 0 -6 -11 -7 -26 -4 -17 5 -23 3 -19 -4 3 -5 -1 -11 -9 -11 -20 -2 -25
-3 -60 -18 -16 -6 -30 -10 -32 -9 -1 2 -4 48 -5 103 l-2 100 104 3 c57 1 108
7 113 12 7 7 6 10 -2 10 -6 0 -9 6 -7 13 4 9 -20 12 -99 12 -57 0 -107 2 -110
5 -2 3 -6 29 -7 58 -3 59 -23 71 -26 15 -3 -63 -21 -72 -160 -76 -92 -3 -125
-1 -133 8 -9 11 -16 11 -38 -1 -15 -7 -28 -18 -28 -24 -1 -5 -2 -14 -3 -20 -2
-19 -29 -10 -46 16 -16 24 -17 25 -31 7 -12 -15 -11 -12 1 18 12 30 12 49 3
100 -13 79 -25 102 -83 166 -25 28 -44 55 -43 60 2 4 0 9 -5 10 -4 2 -30 21
-59 43 -28 23 -64 44 -79 47 l-29 5 6 122 6 121 55 54 c39 39 57 51 63 42 5
-9 10 -10 14 -2 4 6 4 16 1 21 -4 6 0 21 9 34 18 29 221 206 236 206 5 0 10 9
10 20 0 11 -4 20 -10 20 -16 0 -109 122 -103 136 3 8 0 14 -7 14 -7 0 -55 42
-108 93 -54 51 -109 102 -125 114 -27 21 -27 22 -19 91 10 83 -8 203 -36 241
-24 33 -112 82 -149 82 -39 1 -107 -17 -168 -46 -57 -27 -76 -30 -91 -15 -20
20 -143 48 -240 55 -55 4 -105 11 -113 15 -8 4 -22 4 -30 -1 -9 -4 -52 -15
-96 -25 -44 -9 -113 -27 -153 -40 l-72 -25 -45 31 c-60 42 -99 57 -166 65 -50
6 -62 4 -116 -23 -72 -37 -118 -87 -134 -144 -6 -24 -17 -55 -25 -70 -12 -22
-11 -27 1 -32 9 -3 15 -19 15 -39 0 -39 27 -148 41 -162 17 -17 9 -51 -26
-105 -19 -30 -35 -66 -35 -80 0 -14 -7 -50 -15 -80 -8 -30 -18 -117 -22 -192
-4 -88 -10 -138 -17 -139 -32 -3 -81 4 -84 12 -2 5 -10 9 -18 9 -16 0 -17 14
-14 135 1 44 6 81 11 83 5 2 5 11 -1 21 -5 10 -7 31 -4 47 12 57 8 107 -8 98
-7 -5 -8 -3 -2 7 13 22 14 40 1 32 -17 -11 -317 -12 -323 -1 -3 5 -6 51 -6
103 0 52 -3 97 -6 99 -4 2 -8 -35 -10 -82 -2 -47 -7 -93 -12 -103 -5 -9 -7
-18 -5 -21 2 -2 -37 -2 -87 0 -68 3 -89 1 -83 -8 6 -9 2 -9 -15 0 -15 8 -56
11 -122 8 -97 -4 -99 -3 -105 20 -11 44 5 454 20 512 16 63 42 118 102 210 75
118 226 214 403 260 68 17 130 21 517 28 628 12 713 13 1370 2z m-1117 -602
c52 -26 63 -43 32 -53 -12 -4 -50 -33 -84 -66 -35 -32 -66 -59 -69 -59 -12 0
-37 104 -37 151 0 41 3 48 23 52 37 8 87 -1 135 -25z m1127 -8 c17 -33 19 -77
5 -114 l-9 -25 -48 26 c-106 60 -258 21 -361 -92 l-53 -58 -69 13 c-75 14
-176 8 -241 -14 -121 -42 -239 -146 -293 -258 -34 -72 -72 -231 -59 -251 4 -6
1 -7 -8 -1 -24 15 -43 14 -56 -2 -6 -8 -14 -11 -17 -6 -3 5 -17 7 -30 5 -17
-4 -23 -10 -19 -22 4 -13 2 -13 -10 2 -19 22 -53 18 -51 -6 3 -30 -13 -18 -20
14 -22 109 8 263 76 399 44 89 66 119 143 196 157 159 279 207 520 207 124 0
150 -3 229 -27 146 -44 167 -45 223 -4 55 41 68 46 105 47 21 1 31 -6 43 -29z
m-111 -234 c106 -44 178 -184 141 -273 -34 -80 -131 -153 -205 -153 -79 0
-178 79 -200 159 -12 46 -1 111 29 169 48 93 147 135 235 98z m-443 -209 c31
-21 56 -70 94 -188 5 -15 -8 -17 -114 -20 -93 -3 -124 -8 -136 -20 -25 -25
-38 -141 -32 -279 7 -143 11 -150 88 -150 26 0 54 -3 63 -6 32 -12 3 -24 -57
-24 -78 0 -185 48 -235 104 -101 115 -127 278 -65 404 33 65 116 145 185 177
72 34 161 34 209 2z m-1585 -7 c8 0 14 -6 14 -12 1 -7 8 -2 16 12 13 21 15 22
11 4 -3 -13 1 -21 9 -21 7 0 11 4 8 9 -3 4 2 8 11 8 10 0 14 -5 9 -12 -5 -10
-4 -10 6 -1 10 9 16 8 27 -3 11 -11 17 -58 23 -192 4 -97 7 -178 6 -179 -1 -2
-42 -6 -92 -9 -108 -8 -112 -8 -120 -17 -4 -3 -12 -3 -18 1 -6 4 -54 7 -106 7
l-95 0 -3 184 c-2 166 -1 186 15 195 15 8 120 9 163 1 9 -2 30 3 44 10 15 8
24 10 21 5 -4 -6 -2 -10 4 -10 5 0 13 10 17 23 4 12 9 17 11 10 3 -7 11 -13
19 -13z m462 -23 c10 -13 12 -59 10 -195 l-4 -177 -155 -2 -154 -3 -1 43 c-2
62 16 320 22 326 3 3 24 6 47 7 155 5 197 8 197 15 0 14 24 5 38 -14z m1935
-50 c26 -22 47 -45 47 -51 0 -12 -198 -121 -206 -114 -2 3 5 25 15 49 11 24
26 77 33 116 l12 73 25 -17 c14 -9 47 -34 74 -56z m-256 -280 c1 -2 -4 -27
-12 -57 -8 -30 -15 -74 -15 -97 0 -76 -37 -125 -65 -87 -6 9 -25 18 -41 20
-118 14 -341 31 -396 30 l-68 -1 0 97 0 97 28 3 c32 4 565 -1 569 -5z m-2183
-98 c-3 -5 0 -9 5 -9 6 0 11 5 11 11 0 8 6 7 17 -2 14 -12 15 -12 9 -1 -7 12
-4 12 13 2 18 -9 26 -9 39 2 11 9 14 10 8 1 -8 -14 -5 -15 236 -13 81 0 157 3
169 5 12 3 54 2 94 -2 l72 -6 11 -56 c11 -50 64 -170 108 -241 15 -25 14 -27
-59 -104 -87 -92 -91 -92 -177 -21 -30 25 -85 65 -121 90 -37 25 -72 52 -79
60 -20 24 -49 18 -55 -10 -3 -14 -8 -37 -12 -52 -10 -40 -9 -48 3 -48 6 0 39
-36 72 -80 33 -44 105 -127 161 -184 55 -57 103 -112 106 -122 3 -10 29 -29
57 -43 41 -20 67 -26 120 -26 l69 0 -3 -82 -3 -83 -157 1 c-87 0 -161 4 -165
8 -4 4 -9 62 -10 129 -1 67 -2 125 -2 130 -1 11 -31 8 -31 -3 0 -7 -50 -10
-142 -8 -79 2 -141 5 -138 8 2 3 -3 16 -13 30 -9 13 -17 29 -17 35 0 5 4 4 9
-3 5 -9 10 7 15 45 8 80 6 332 -3 337 -4 3 -6 -9 -3 -27 2 -24 1 -28 -7 -17
-5 8 -7 19 -4 25 4 5 -5 0 -18 -12 -23 -21 -35 -22 -175 -23 -83 -1 -157 -5
-164 -10 -20 -12 52 -17 198 -14 89 2 132 0 132 -8 0 -5 9 -8 19 -5 14 3 18 1
14 -9 -3 -8 -9 -12 -13 -9 -12 7 -18 -51 -18 -193 -1 -73 -4 -137 -7 -142 -3
-6 -61 -10 -128 -11 -132 -1 -187 -9 -153 -22 18 -7 18 -8 1 -21 -15 -10 8
-12 135 -8 l153 4 -6 -63 c-4 -34 -7 -76 -7 -93 0 -41 -12 -58 -44 -61 -14 -2
-24 0 -21 5 3 4 -2 13 -10 20 -27 22 -18 -18 10 -46 29 -29 31 -36 10 -28 -8
4 -15 1 -15 -5 0 -7 16 -10 44 -8 37 4 43 2 39 -12 -3 -10 2 -8 15 7 19 20 28
22 137 22 75 0 114 -4 110 -10 -3 -5 -2 -10 4 -10 5 0 12 4 16 9 3 6 93 10
207 11 l201 0 -6 -76 c-6 -81 -12 -98 -27 -74 -8 12 -10 12 -10 2 0 -8 9 -16
19 -19 11 -3 17 -11 15 -18 -8 -19 -52 5 -47 25 2 9 -3 22 -11 29 -14 12 -16
10 -16 -10 1 -30 25 -63 39 -54 6 3 11 0 11 -7 0 -12 -14 -14 -83 -9 -10 0
-15 5 -12 11 3 5 1 18 -5 27 -9 16 -10 15 -5 -4 5 -18 2 -23 -13 -23 -11 0
-22 -5 -24 -12 -3 -8 -13 -6 -31 8 -14 10 -24 25 -22 32 3 9 -3 10 -20 6 -15
-4 -25 -2 -25 5 0 6 -7 8 -15 5 -8 -4 -15 -11 -15 -16 0 -6 7 -8 15 -4 20 7
19 -1 -4 -26 -19 -20 -20 -20 -16 28 3 44 2 46 -10 24 -7 -13 -11 -31 -8 -39
4 -13 3 -14 -5 -2 -6 8 -7 21 -4 30 4 12 3 14 -9 5 -8 -5 -27 -16 -43 -23 -26
-11 -28 -11 -16 4 16 19 6 32 -13 17 -10 -8 -16 -6 -25 9 -7 10 -17 19 -23 19
-8 0 -8 -4 0 -14 9 -11 6 -12 -16 -8 -15 3 -34 11 -41 19 -7 7 -20 13 -28 13
-9 0 -12 5 -8 12 4 7 3 8 -5 4 -9 -6 -9 -11 0 -22 6 -7 15 -12 19 -9 9 6 23
-25 15 -33 -3 -3 -5 0 -5 6 0 7 -5 12 -12 12 -6 0 -20 7 -30 17 -22 20 -35 11
-14 -10 8 -8 13 -17 10 -20 -8 -8 -44 25 -38 35 3 4 0 16 -5 25 -9 16 -10 16
-11 2 0 -20 -27 -33 -33 -16 -2 6 6 19 17 29 18 15 18 17 4 18 -9 0 -18 3 -21
8 -2 4 -2 1 -1 -5 4 -14 -30 -36 -40 -26 -3 3 -1 12 5 20 18 21 -7 43 -42 36
-19 -3 -29 -1 -29 6 0 7 -4 10 -9 7 -4 -3 -8 7 -7 22 1 19 -5 28 -19 30 -17 4
-18 2 -6 -12 8 -10 9 -16 3 -16 -17 0 -25 21 -13 33 6 6 11 16 11 22 0 5 -14
-5 -30 -24 -25 -28 -28 -36 -18 -49 12 -13 10 -14 -9 -1 -12 7 -19 16 -15 19
12 8 8 68 -5 81 -7 7 -16 10 -20 6 -3 -4 2 -13 12 -21 12 -8 14 -15 7 -20 -6
-4 -9 -14 -6 -24 3 -10 0 -7 -8 5 -9 15 -18 19 -26 14 -11 -7 -10 -9 2 -14 9
-4 15 -17 15 -29 -1 -16 -3 -18 -6 -6 -2 9 -11 19 -19 22 -9 3 -12 1 -9 -4 3
-6 1 -10 -4 -10 -15 0 -14 47 2 54 6 3 0 3 -14 0 -15 -3 -30 -1 -34 5 -3 7 -3
11 2 10 20 -4 46 2 39 8 -4 4 -22 6 -41 5 -30 -3 -33 -1 -28 20 4 18 3 20 -6
8 -8 -12 -11 -7 -11 23 0 23 4 36 10 32 6 -4 8 -10 5 -15 -3 -4 2 -11 11 -14
15 -6 15 -4 2 16 -9 13 -28 26 -44 29 -16 4 -21 7 -11 8 14 1 17 6 12 22 -5
14 -2 25 6 30 9 6 2 8 -18 5 -32 -3 -45 8 -20 17 8 3 7 9 -6 19 -16 12 -18 34
-20 208 l-2 194 32 1 c42 0 50 10 11 13 -17 1 -35 5 -39 8 -5 3 -9 84 -9 179
l0 175 25 6 c14 4 29 4 32 0 3 -3 12 -1 20 5 7 7 13 7 13 2 0 -13 91 -13 108
-1 7 7 12 7 12 1 0 -5 7 -10 15 -10 9 0 14 6 11 13 -3 8 0 11 9 7 8 -3 12 -9
9 -14z m2989 4 c-7 -2 -19 -2 -25 0 -7 3 -2 5 12 5 14 0 19 -2 13 -5z m-1071
-237 c-11 -39 -116 -117 -165 -123 -28 -3 -23 2 32 34 35 21 77 54 95 75 37
43 47 47 38 14z m-1707 -264 c0 -40 -4 -59 -12 -59 -9 0 -10 4 -2 13 7 8 7 14
0 18 -7 4 -7 15 -1 30 5 13 6 26 3 29 -4 5 4 27 10 27 2 0 2 -26 2 -58z m820
-33 c36 -34 65 -65 65 -69 0 -4 -31 -5 -68 -2 -62 4 -78 1 -161 -33 -51 -20
-95 -34 -98 -31 -19 18 108 164 162 187 31 12 30 13 100 -52z m1291 20 c82
-56 130 -148 82 -157 -9 -2 -30 6 -46 18 -18 14 -46 22 -75 23 -25 1 -43 5
-41 8 2 4 -18 9 -44 12 -54 6 -138 -7 -160 -25 -11 -10 -11 -5 3 15 10 15 49
52 88 82 87 68 124 72 193 24z m-2110 -90 c0 -15 -3 -26 -7 -23 -4 2 -10 -2
-12 -8 -4 -9 -6 -10 -6 -1 -1 6 4 15 9 18 6 4 7 13 1 24 -7 13 -6 18 3 18 7 0
12 -12 12 -28z m1264 -156 c23 -9 186 -4 259 8 35 5 65 8 67 6 8 -8 26 -276
20 -293 -7 -18 -8 -18 -17 -1 -9 15 -26 17 -120 17 l-109 0 -12 28 c-6 15 -12
44 -12 64 -1 20 -4 39 -7 43 -4 3 -5 -8 -4 -24 2 -21 -5 -38 -20 -53 -12 -13
-25 -32 -29 -42 -6 -18 -14 -18 -119 -13 -61 4 -115 7 -118 7 -4 0 -10 24 -13
53 -4 28 -10 62 -13 74 -4 19 1 24 42 34 41 10 49 17 71 60 l24 49 48 -6 c26
-3 54 -8 62 -11z m1433 -17 c12 1 17 -2 14 -10 -4 -9 5 -12 31 -11 70 4 74 -4
70 -118 l-3 -102 -115 -3 c-63 -1 -120 1 -126 5 -6 5 -14 30 -17 57 -4 27 -12
53 -19 58 -10 6 -10 8 0 8 6 0 12 12 12 28 0 21 -2 24 -10 12 -8 -12 -10 -9
-10 13 0 23 4 27 30 27 24 0 30 4 31 23 1 16 2 18 6 5 6 -22 23 -24 23 -2 0
11 5 14 18 9 50 -20 48 -20 32 1 -13 17 -13 18 0 8 8 -6 23 -10 33 -8z m-2418
-137 l0 -106 -137 -2 -138 -2 0 105 0 105 43 4 c23 2 85 3 137 3 l95 -1 0
-106z m2228 51 c0 -25 -2 -71 -2 -104 l-1 -59 -102 7 c-56 4 -104 8 -106 10
-5 6 -3 168 2 174 11 11 83 20 146 19 l65 -2 -2 -45z m-2926 5 c0 -8 -4 -12
-9 -9 -4 3 -8 9 -8 15 0 5 4 9 8 9 5 0 9 -7 9 -15z m1403 -6 c3 -1 9 -1 15 1
5 1 2 -7 -7 -17 -11 -12 -18 -40 -20 -83 l-3 -64 -55 3 c-150 7 -184 11 -192
23 -4 7 -8 36 -8 65 0 28 -2 58 -5 65 -5 12 17 14 132 12 76 -2 140 -4 143 -5z
m1252 -68 c-4 -94 1 -91 -144 -91 l-98 0 0 80 0 79 93 4 c50 1 106 4 122 5
l30 2 -3 -79z m-311 65 c2 -2 2 -37 -1 -76 l-5 -72 -116 -1 -117 -2 -6 44 c-3
24 -6 59 -6 77 l0 34 123 0 c68 0 126 -2 128 -4z m-2324 -51 c0 -8 -4 -12 -9
-9 -4 3 -8 9 -8 15 0 5 4 9 8 9 5 0 9 -7 9 -15z m2083 -135 c0 -6 47 -10 120
-10 l121 0 -3 -115 c-2 -103 -4 -115 -20 -115 -10 0 -18 6 -19 13 0 10 -2 10
-6 0 -2 -7 -11 -13 -19 -13 -9 0 -12 5 -9 10 3 6 2 10 -4 10 -5 0 -13 -4 -16
-10 -3 -5 -31 -10 -61 -10 -30 0 -54 5 -54 10 0 6 -5 10 -11 10 -5 0 -8 -4 -5
-9 7 -11 -18 -21 -30 -13 -5 4 -9 14 -9 22 1 8 -3 21 -8 28 -6 7 -7 15 -3 19
3 3 6 1 6 -5 0 -7 4 -12 9 -12 5 0 8 45 7 100 -1 55 2 100 6 100 4 0 8 -4 8
-10z m305 -1 c-5 -7 17 -10 66 -9 41 1 98 1 127 1 l53 -1 -2 -91 c-2 -49 -6
-92 -10 -95 -4 -2 -5 -13 -2 -24 3 -12 0 -20 -7 -20 -7 0 -10 6 -7 14 4 9 -4
13 -26 14 -41 2 -69 -7 -62 -19 4 -5 2 -9 -4 -9 -5 0 -12 6 -15 13 -5 10 -7
10 -12 0 -3 -7 -13 -13 -22 -12 -11 0 -12 2 -4 6 6 2 12 11 12 19 0 11 -8 10
-37 -6 -40 -21 -68 -26 -58 -10 3 6 2 10 -3 10 -5 0 -5 29 0 68 5 37 6 88 4
115 -3 28 -1 47 5 47 6 0 7 -5 4 -11z m1055 -8 c13 -26 13 -31 -5 -31 -8 0
-21 -12 -29 -27 -8 -16 -15 -24 -16 -20 0 13 22 51 34 59 6 4 7 10 3 14 -3 4
-13 1 -21 -5 -12 -10 -14 -9 -9 8 7 26 29 27 43 2z m-2112 -7 l32 -5 0 -76 c0
-60 -4 -79 -17 -89 -15 -12 -15 -13 -2 -8 9 3 19 -1 22 -9 4 -11 0 -14 -16
-11 -12 2 -16 2 -9 -2 18 -9 15 -20 -7 -21 -13 -1 -17 4 -14 15 2 9 -3 26 -12
37 -10 13 -14 15 -13 5 2 -8 7 -18 11 -21 9 -7 -2 -39 -14 -39 -4 0 -6 8 -3
18 5 15 4 15 -8 1 -9 -12 -33 -17 -87 -18 -41 -1 -78 -4 -82 -7 -4 -2 -10 0
-14 6 -3 5 -1 10 6 10 8 0 6 6 -4 18 -10 10 -14 22 -10 26 9 9 10 12 11 103
l2 72 58 3 c60 3 116 1 170 -8z m1982 -14 c-20 -12 -32 -2 -17 15 8 8 16 10
22 4 6 -7 5 -13 -5 -19z m-1635 -98 l1 -113 -31 3 c-16 1 -33 7 -37 13 -5 6
-11 5 -17 -4 -10 -15 -107 -25 -159 -16 -27 5 -31 9 -22 24 5 10 6 21 3 25 -3
3 -2 6 4 6 7 0 9 32 6 90 l-5 91 129 -3 128 -3 0 -113z m315 108 c11 -7 15
-32 17 -101 0 -51 -1 -98 -4 -105 -3 -8 -22 -13 -46 -14 -23 0 -53 -1 -67 -1
-64 -3 -79 1 -74 19 5 16 5 16 -6 0 -6 -10 -23 -18 -39 -18 -23 0 -30 5 -33
25 -3 14 -2 25 1 25 3 0 5 40 3 90 l-3 90 118 0 c65 0 125 -5 133 -10z m916
-43 c1 -80 44 -85 44 -5 l0 37 45 -2 c25 -1 45 -3 45 -5 0 -2 -5 -12 -11 -23
-15 -29 -19 -59 -8 -59 5 0 9 3 10 8 3 29 9 47 19 50 5 2 8 8 4 13 -3 5 -1 9
4 9 17 0 22 -29 7 -44 -8 -7 -11 -16 -8 -20 3 -3 -2 -8 -11 -12 -20 -8 -21
-30 -1 -38 10 -4 15 1 15 14 0 23 6 25 24 7 17 -16 16 -45 -1 -51 -11 -4 -11
-1 -3 14 6 12 7 20 1 20 -5 0 -11 -5 -13 -11 -2 -7 -16 -13 -31 -15 -24 -2
-27 0 -23 21 3 18 -1 24 -19 28 -22 4 -44 -18 -30 -31 3 -3 5 -1 5 5 0 6 8 9
19 6 13 -3 17 -11 14 -24 -3 -10 -1 -19 4 -19 6 0 8 -11 5 -25 -4 -22 -9 -25
-49 -25 -29 0 -43 4 -42 13 4 29 -2 58 -10 53 -5 -3 -8 -14 -6 -24 1 -9 0 -11
-2 -4 -3 6 -16 12 -30 12 -18 0 -24 -4 -19 -15 4 -13 2 -13 -14 -5 -22 12 -61
13 -59 3 4 -23 -6 -28 -52 -28 l-50 0 2 105 c1 58 4 109 7 113 2 4 52 6 110 5
l107 -3 1 -48z m-2669 11 c2 -17 0 -19 -7 -8 -5 8 -6 18 -4 22 8 12 10 10 11
-14z m2915 8 c3 2 8 -2 11 -10 4 -10 1 -13 -7 -10 -16 6 -50 -42 -36 -51 6 -3
10 -14 10 -23 0 -13 -3 -12 -15 5 -8 12 -13 28 -10 36 3 7 -1 20 -10 27 -17
14 -20 30 -4 30 5 0 8 -4 5 -9 -7 -11 24 -24 33 -15 3 4 0 9 -7 11 -6 3 -9 9
-6 14 4 6 10 6 18 0 7 -6 15 -8 18 -5z m52 5 c8 -13 -4 -42 -15 -35 -5 3 -7
10 -4 15 4 5 1 9 -5 9 -6 0 -8 5 -5 10 8 12 22 13 29 1z m131 -21 c-3 -5 -1
-10 6 -10 7 0 10 -3 6 -6 -9 -9 -28 6 -22 17 4 5 8 9 11 9 3 0 2 -4 -1 -10z
m45 0 c0 -5 -5 -10 -11 -10 -5 0 -7 5 -4 10 3 6 8 10 11 10 2 0 4 -4 4 -10z
m-3040 -10 c0 -5 -7 -10 -16 -10 -9 0 -12 -5 -8 -12 4 -7 3 -8 -5 -4 -9 6 -9
11 0 22 13 16 29 18 29 4z m2840 -20 c0 -5 -4 -10 -10 -10 -5 0 -10 5 -10 10
0 6 5 10 10 10 6 0 10 -4 10 -10z m-90 -10 c0 -5 -4 -10 -10 -10 -5 0 -10 5
-10 10 0 6 5 10 10 10 6 0 10 -4 10 -10z m280 6 c0 -3 -4 -8 -10 -11 -5 -3
-10 -1 -10 4 0 6 5 11 10 11 6 0 10 -2 10 -4z m-200 -20 c0 -11 -19 -15 -25
-6 -3 5 1 10 9 10 9 0 16 -2 16 -4z m45 -25 c-6 -5 -25 10 -25 20 0 5 6 4 14
-3 8 -7 12 -15 11 -17z m32 -13 c-3 -8 -6 -5 -6 6 -1 11 2 17 5 13 3 -3 4 -12
1 -19z m-107 -12 c0 -3 -4 -8 -10 -11 -5 -3 -10 -1 -10 4 0 6 5 11 10 11 6 0
10 -2 10 -4z m-2755 -16 c3 -5 -1 -10 -10 -10 -9 0 -13 5 -10 10 3 6 8 10 10
10 2 0 7 -4 10 -10z m677 -47 c-33 -18 -39 -16 -16 5 11 9 18 26 16 37 -2 16
0 15 10 -5 13 -23 12 -26 -10 -37z m-661 14 c-10 -9 -11 -8 -5 6 3 10 9 15 12
12 3 -3 0 -11 -7 -18z m2659 -7 c5 0 11 6 13 13 4 7 6 6 6 -4 1 -22 -26 -32
-33 -13 -3 9 -5 21 -5 27 1 7 3 4 6 -5 2 -10 8 -18 13 -18z m-2255 10 c-3 -5
1 -10 9 -10 8 0 17 -4 20 -8 8 -13 -28 -11 -36 2 -7 10 -2 26 8 26 3 0 2 -4
-1 -10z m2080 0 c3 -5 1 -10 -4 -10 -6 0 -11 5 -11 10 0 6 2 10 4 10 3 0 8 -4
11 -10z m-2170 -20 c3 -5 1 -10 -4 -10 -6 0 -11 5 -11 10 0 6 2 10 4 10 3 0 8
-4 11 -10z"/>
<path d="M4668 7393 c6 -2 18 -2 25 0 6 3 1 5 -13 5 -14 0 -19 -2 -12 -5z"/>
<path d="M4756 7238 c3 -5 10 -6 15 -3 13 9 11 12 -6 12 -8 0 -12 -4 -9 -9z"/>
<path d="M5713 7243 c9 -2 25 -2 35 0 9 3 1 5 -18 5 -19 0 -27 -2 -17 -5z"/>
<path d="M6296 7242 c-2 -4 11 -6 30 -4 19 2 34 6 34 8 0 8 -59 4 -64 -4z"/>
<path d="M4050 7230 c25 -8 230 -3 239 5 2 3 -56 5 -130 4 -80 -1 -124 -4
-109 -9z"/>
<path d="M6295 7210 c3 -5 25 -10 47 -10 52 0 43 11 -12 16 -26 3 -39 0 -35
-6z"/>
<path d="M4108 7203 c18 -2 45 -2 60 0 15 2 0 4 -33 4 -33 0 -45 -2 -27 -4z"/>
<path d="M4280 7141 c3 -45 5 -55 8 -31 2 19 9 41 15 49 10 12 9 13 -3 6 -12
-6 -13 -5 -2 6 16 18 15 26 -5 31 -16 4 -18 -2 -13 -61z"/>
<path d="M4458 7203 c7 -3 16 -2 19 1 4 3 -2 6 -13 5 -11 0 -14 -3 -6 -6z"/>
<path d="M5073 7203 c9 -2 25 -2 35 0 9 3 1 5 -18 5 -19 0 -27 -2 -17 -5z"/>
<path d="M6797 7183 c-4 -3 -7 -55 -7 -115 0 -104 1 -109 17 -92 17 16 18 16
24 -7 12 -45 22 7 16 79 -12 119 -26 159 -50 135z m30 -168 c0 -8 -4 -12 -9
-9 -5 3 -6 10 -3 15 9 13 12 11 12 -6z"/>
<path d="M3947 7150 c-7 -28 -10 -196 -3 -189 10 10 24 161 17 187 l-7 27 -7
-25z"/>
<path d="M4952 7145 c0 -16 2 -22 5 -12 2 9 2 23 0 30 -3 6 -5 -1 -5 -18z"/>
<path d="M6207 7076 c-4 -38 -6 -71 -3 -73 6 -7 19 101 14 123 -2 11 -7 -12
-11 -50z"/>
<path d="M3983 7050 c0 -25 2 -35 4 -22 2 12 2 32 0 45 -2 12 -4 2 -4 -23z"/>
<path d="M6242 7060 c0 -14 2 -19 5 -12 2 6 2 18 0 25 -3 6 -5 1 -5 -13z"/>
<path d="M4031 6886 c2 -2 33 -6 69 -9 39 -3 55 -2 40 3 -25 8 -117 13 -109 6z"/>
<path d="M6651 6877 c-6 -8 -8 -17 -4 -20 3 -4 1 -7 -4 -7 -6 0 -14 6 -16 13
-4 8 -6 7 -6 -3 -1 -13 -2 -13 -11 0 -8 13 -10 13 -10 -2 0 -12 -11 -18 -37
-21 -21 -2 14 -4 77 -5 63 -1 120 2 125 6 16 11 15 29 0 29 -8 0 -11 -5 -8
-10 3 -6 1 -7 -6 -3 -6 4 -19 2 -28 -6 -12 -9 -15 -9 -9 0 4 7 2 12 -4 12 -6
0 -9 4 -6 9 7 10 -20 9 -30 -2 -14 -14 -26 -7 -14 8 7 8 10 15 7 15 -2 0 -10
-6 -16 -13z m43 -23 c3 -8 2 -12 -4 -9 -6 3 -10 10 -10 16 0 14 7 11 14 -7z"/>
<path d="M3634 6855 l-2 -25 151 0 c83 0 148 2 146 4 -7 7 -118 19 -166 18
-23 -1 -44 2 -47 7 -3 4 32 8 76 9 129 3 104 12 -33 12 l-124 0 -1 -25z"/>
<path d="M4096 6852 c-2 -4 -24 -9 -48 -11 -92 -5 -44 -11 83 -10 121 2 127 2
62 9 -39 4 -76 11 -81 14 -6 4 -13 3 -16 -2z"/>
<path d="M4378 6833 c6 -2 18 -2 25 0 6 3 1 5 -13 5 -14 0 -19 -2 -12 -5z"/>
<path d="M4281 6675 c0 -82 4 -157 9 -165 12 -18 12 190 0 265 -5 37 -8 11 -9
-100z"/>
<path d="M3950 6801 c0 -6 4 -13 10 -16 6 -3 7 1 4 9 -7 18 -14 21 -14 7z"/>
<path d="M4360 6471 c-22 -7 -19 -8 20 -13 25 -3 49 -1 55 3 5 6 2 9 -7 9 -9
0 -22 2 -30 4 -7 2 -24 1 -38 -3z"/>
<path d="M6831 6104 c0 -11 3 -14 6 -6 3 7 2 16 -1 19 -3 4 -6 -2 -5 -13z"/>
<path d="M6395 6031 c-16 -3 -25 -9 -19 -13 13 -9 54 1 54 13 0 5 -1 8 -2 8
-2 -1 -16 -4 -33 -8z"/>
<path d="M6336 6018 c3 -5 10 -6 15 -3 13 9 11 12 -6 12 -8 0 -12 -4 -9 -9z"/>
<path d="M6810 5946 c0 -8 5 -18 10 -21 6 -3 10 1 10 9 0 8 -4 18 -10 21 -5 3
-10 -1 -10 -9z"/>
<path d="M6211 5894 c0 -11 3 -14 6 -6 3 7 2 16 -1 19 -3 4 -6 -2 -5 -13z"/>
<path d="M6201 5814 c0 -11 3 -14 6 -6 3 7 2 16 -1 19 -3 4 -6 -2 -5 -13z"/>
<path d="M6202 5740 c0 -14 2 -19 5 -12 2 6 2 18 0 25 -3 6 -5 1 -5 -13z"/>
<path d="M6812 5664 c-6 -10 -14 -18 -19 -17 -4 2 -15 1 -23 -1 -8 -3 -64 -8
-123 -11 -60 -4 -107 -8 -105 -10 2 -1 43 -6 93 -9 49 -4 91 -9 93 -11 3 -2
13 0 24 6 23 13 68 1 47 -12 -8 -5 -9 -9 -4 -9 6 0 10 -32 10 -76 0 -61 3 -77
15 -79 12 -2 15 12 14 76 l-1 79 106 1 c112 0 208 6 229 14 6 2 12 11 12 20 0
13 -23 15 -164 15 -157 0 -164 1 -178 22 -14 21 -15 22 -26 2z"/>
<path d="M6288 5628 c-8 -4 4 -8 30 -8 23 0 42 2 42 4 0 8 -60 12 -72 4z"/>
<path d="M6405 5631 l-40 -7 43 -5 c30 -3 42 -1 42 8 0 7 -1 12 -2 12 -2 -1
-21 -5 -43 -8z"/>
<path d="M6465 5629 c-9 -14 -2 -20 14 -10 8 6 9 11 3 15 -6 3 -14 1 -17 -5z"/>
<path d="M6220 5626 c0 -2 7 -7 16 -10 8 -3 12 -2 9 4 -6 10 -25 14 -25 6z"/>
<path d="M6823 5405 c0 -8 4 -12 9 -9 4 3 8 9 8 15 0 5 -4 9 -8 9 -5 0 -9 -7
-9 -15z"/>
<path d="M6475 5270 c-3 -5 -1 -10 4 -10 6 0 11 5 11 10 0 6 -2 10 -4 10 -3 0
-8 -4 -11 -10z"/>
<path d="M7015 5080 c3 -5 8 -10 11 -10 2 0 4 5 4 10 0 6 -5 10 -11 10 -5 0
-7 -4 -4 -10z"/>
<path d="M7086 5077 c3 -10 9 -15 12 -12 3 3 0 11 -7 18 -10 9 -11 8 -5 -6z"/>
<path d="M5699 6531 c-83 -83 16 -225 121 -173 68 33 70 113 4 172 -46 40 -86
40 -125 1z"/>
<path d="M5383 5973 c11 -10 56 -12 62 -2 4 5 -11 9 -31 9 -21 0 -34 -3 -31
-7z"/>
<path d="M3961 5961 c-10 -6 -12 -22 -9 -55 3 -25 2 -46 -2 -48 -4 -2 -5 -21
-1 -43 l7 -40 8 35 c7 28 17 160 12 160 0 0 -7 -4 -15 -9z"/>
<path d="M3650 5111 c0 -6 4 -13 10 -16 6 -3 7 1 4 9 -7 18 -14 21 -14 7z"/>
<path d="M3630 5096 c0 -8 4 -17 9 -20 5 -4 7 3 4 14 -6 23 -13 26 -13 6z"/>
<path d="M3650 5045 c0 -8 4 -15 10 -15 5 0 7 7 4 15 -4 8 -8 15 -10 15 -2 0
-4 -7 -4 -15z"/>
<path d="M3705 5051 c-3 -5 -2 -12 3 -15 5 -3 9 1 9 9 0 17 -3 19 -12 6z"/>
<path d="M3620 5039 c0 -5 5 -7 10 -4 6 3 10 8 10 11 0 2 -4 4 -10 4 -5 0 -10
-5 -10 -11z"/>
<path d="M3691 5013 c7 -12 15 -20 18 -17 3 2 -3 12 -13 22 -17 16 -18 16 -5
-5z"/>
<path d="M3771 4984 c0 -11 3 -14 6 -6 3 7 2 16 -1 19 -3 4 -6 -2 -5 -13z"/>
<path d="M4241 4894 c0 -11 3 -14 6 -6 3 7 2 16 -1 19 -3 4 -6 -2 -5 -13z"/>
<path d="M3975 4890 c3 -5 8 -10 11 -10 2 0 4 5 4 10 0 6 -5 10 -11 10 -5 0
-7 -4 -4 -10z"/>
<path d="M4215 4890 c3 -5 8 -10 11 -10 2 0 4 5 4 10 0 6 -5 10 -11 10 -5 0
-7 -4 -4 -10z"/>
<path d="M4026 4833 c-6 -14 -5 -15 5 -6 7 7 10 15 7 18 -3 3 -9 -2 -12 -12z"/>
<path d="M4090 4841 c0 -10 19 -25 25 -20 1 2 -3 10 -11 17 -8 7 -14 8 -14 3z"/>
<path d="M4520 4799 c0 -5 5 -7 10 -4 6 3 10 8 10 11 0 2 -4 4 -10 4 -5 0 -10
-5 -10 -11z"/>
<path d="M4255 4780 c-3 -5 -2 -10 4 -10 5 0 13 5 16 10 3 6 2 10 -4 10 -5 0
-13 -4 -16 -10z"/>
<path d="M4436 4757 c4 -24 14 -36 14 -17 0 7 8 18 17 25 15 11 14 13 -9 13
-21 0 -26 -5 -22 -21z"/>
<path d="M4511 4775 c0 -5 6 -21 13 -34 15 -27 28 -16 15 14 -4 11 -8 16 -8
10 -1 -5 -6 -3 -11 5 -5 8 -10 11 -9 5z"/>
<path d="M5275 5219 c-4 -6 -5 -12 -2 -15 2 -3 7 2 10 11 7 17 1 20 -8 4z"/>
<path d="M5271 5054 c0 -11 3 -14 6 -6 3 7 2 16 -1 19 -3 4 -6 -2 -5 -13z"/>
<path d="M6056 4756 c3 -9 10 -16 15 -16 5 0 11 0 14 0 8 0 6 15 -2 15 -5 0
-14 4 -20 8 -9 6 -11 3 -7 -7z"/>
<path d="M6150 4761 c0 -6 5 -13 10 -16 6 -3 10 1 10 9 0 9 -4 16 -10 16 -5 0
-10 -4 -10 -9z"/>
<path d="M5974 4739 c-9 -15 -2 -18 20 -9 17 6 18 7 3 13 -9 3 -19 2 -23 -4z"/>
<path d="M5188 4748 c6 -6 20 -13 29 -14 16 -2 16 -1 -1 12 -24 17 -45 19 -28
2z"/>
<path d="M5085 4740 c-3 -5 -1 -10 4 -10 6 0 11 5 11 10 0 6 -2 10 -4 10 -3 0
-8 -4 -11 -10z"/>
<path d="M6445 4780 c-3 -5 -1 -10 4 -10 6 0 11 5 11 10 0 6 -2 10 -4 10 -3 0
-8 -4 -11 -10z"/>
<path d="M6335 4771 c-3 -5 -1 -12 4 -15 5 -3 11 1 15 9 6 16 -9 21 -19 6z"/>
<path d="M6514 4768 c-4 -6 -2 -14 4 -16 6 -2 8 -10 5 -18 -4 -10 2 -13 19
-12 20 2 25 8 26 30 0 16 -4 26 -9 22 -5 -3 -7 -9 -4 -14 3 -5 1 -11 -5 -15
-5 -3 -10 1 -10 9 0 20 -17 29 -26 14z"/>
<path d="M6335 4730 c4 -6 11 -8 16 -5 14 9 11 15 -7 15 -8 0 -12 -5 -9 -10z"/>
<path d="M2080 4400 c0 -5 5 -10 10 -10 6 0 10 5 10 10 0 6 -4 10 -10 10 -5 0
-10 -4 -10 -10z"/>
<path d="M2060 4381 c0 -6 4 -13 10 -16 6 -3 7 1 4 9 -7 18 -14 21 -14 7z"/>
<path d="M3157 4010 c-27 -5 -51 -11 -53 -13 -5 -5 -58 -199 -100 -362 -14
-55 -52 -183 -84 -285 -32 -102 -68 -223 -80 -270 -12 -47 -35 -116 -51 -155
-55 -135 -123 -411 -135 -550 -6 -66 -5 -72 21 -103 15 -18 37 -37 48 -44 24
-13 655 -22 674 -10 33 21 118 455 110 564 -5 80 -8 78 136 78 86 0 97 -2 97
-17 0 -10 -9 -115 -21 -233 -34 -364 -34 -364 -15 -383 16 -16 124 -17 1614
-17 1747 0 1633 -4 1645 57 3 15 1 82 -4 148 -20 237 -38 410 -45 433 -6 22
-6 22 108 22 76 0 119 -4 130 -12 12 -10 17 -41 22 -128 10 -180 46 -393 80
-474 l14 -33 138 -6 c230 -10 553 -8 574 3 11 6 30 30 41 53 20 38 21 48 11
128 -6 48 -32 173 -58 280 -37 150 -52 198 -70 214 -31 28 -38 49 -64 185 -12
63 -41 174 -65 245 -27 79 -54 187 -69 275 -26 157 -44 231 -76 324 -35 102
-16 96 -305 96 -210 0 -262 -3 -305 -17 -46 -15 -56 -15 -83 -2 -26 11 -86 14
-302 12 -148 -1 -301 -1 -340 -1 -76 1 -549 1 -630 0 -27 0 -153 1 -280 1
-126 1 -273 1 -325 -1 -52 -2 -212 0 -355 4 -218 5 -268 4 -305 -9 -26 -9 -51
-12 -60 -7 -9 5 -134 11 -278 14 -256 6 -264 6 -301 -15 -35 -19 -40 -20 -62
-6 -19 12 -71 16 -259 20 -129 3 -257 1 -283 -3z m453 -127 c0 -16 -9 -82 -20
-149 -11 -66 -21 -135 -22 -153 -2 -27 -6 -31 -23 -27 -11 3 -25 6 -32 6 -7 0
-10 7 -7 15 4 10 0 15 -16 15 -13 0 -19 -4 -14 -11 7 -11 -40 -9 -94 4 -13 4
-20 2 -17 -4 11 -16 -162 -11 -195 6 -25 13 -30 22 -30 53 0 21 7 62 15 92 8
30 23 83 32 118 l16 62 203 0 204 0 0 -27z m656 13 c3 -7 -4 -70 -15 -140 -12
-70 -18 -144 -15 -164 l6 -38 -44 5 c-30 4 -36 6 -18 9 37 6 47 20 24 36 -10
8 -16 18 -12 21 4 4 0 14 -8 23 -14 13 -31 13 -167 -2 -84 -9 -168 -16 -188
-16 -36 0 -36 0 -33 38 4 43 33 211 39 230 7 19 424 17 431 -2z m639 -103 c-4
-65 -13 -130 -20 -144 -9 -16 -10 -30 -4 -40 5 -8 9 -22 9 -31 0 -14 -8 -16
-57 -11 -67 7 -71 9 -53 26 10 9 11 9 6 0 -5 -10 4 -12 34 -11 24 1 39 6 37
12 -3 6 0 19 5 29 9 17 4 18 -69 13 -43 -2 -99 -5 -125 -5 -45 -1 -66 -16 -32
-23 13 -3 13 -5 -1 -23 -9 -11 -14 -15 -11 -8 8 15 -22 21 -56 12 -19 -5 -33
-3 -42 7 -16 15 -30 19 -22 6 3 -5 -1 -9 -9 -9 -8 0 -12 4 -9 9 3 4 -4 8 -14
8 -28 0 -31 38 -16 168 7 59 13 113 13 120 1 9 52 12 222 12 l221 0 -7 -117z
m655 -25 l0 -142 -30 29 c-23 22 -30 25 -30 12 0 -15 -18 -17 -184 -17 -101 0
-191 -3 -200 -6 -14 -5 -16 5 -16 77 0 46 3 108 6 137 l7 52 223 0 224 0 0
-142z m652 97 c3 -22 10 -86 13 -142 8 -101 7 -102 -14 -96 -12 3 -26 15 -32
26 -7 12 -14 16 -18 9 -9 -15 -277 -23 -307 -10 -17 8 -27 8 -39 -2 -8 -7 -18
-11 -20 -8 -6 6 -25 180 -25 231 l0 37 217 -2 218 -3 7 -40z m653 13 c12 -74
35 -228 35 -237 0 -7 -54 -14 -97 -11 -47 2 -62 1 -90 -5 -19 -4 -33 -4 -33 2
0 5 -47 9 -107 10 l-108 0 -17 129 c-12 98 -14 131 -5 136 7 4 103 8 214 8
l202 0 6 -32z m639 16 c14 -37 56 -235 56 -265 l0 -33 -20 22 c-21 23 -60 30
-60 11 0 -5 -3 -8 -7 -6 -5 3 -48 1 -98 -3 -68 -6 -92 -5 -100 5 -12 14 -71
10 -92 -6 -24 -21 -16 -49 15 -50 l27 -1 -25 -7 c-84 -26 -83 -26 -77 15 4 21
-1 100 -9 177 -13 116 -13 141 -2 148 7 5 97 9 199 9 162 0 188 -2 193 -16z
m-2814 -319 c0 -5 -5 -3 -10 5 -5 8 -10 20 -10 25 0 6 5 3 10 -5 5 -8 10 -19
10 -25z m1805 3 c16 -3 14 -6 -12 -15 -33 -12 -33 -12 -33 20 1 28 2 30 13 16
7 -9 21 -18 32 -21z m305 20 c0 -4 -4 -8 -9 -8 -6 0 -12 4 -15 8 -3 5 1 9 9 9
8 0 15 -4 15 -9z m-40 -6 c0 -11 1 -10 -135 -18 -60 -4 -108 -4 -105 -1 3 3
39 7 80 8 40 1 88 6 104 10 44 10 56 10 56 1z m135 -4 c4 -3 -13 -4 -36 -2
-24 2 -45 7 -48 9 -3 3 14 4 37 2 23 -2 44 -6 47 -9z m359 -16 c3 -5 -1 -9 -9
-9 -8 0 -12 4 -9 9 3 4 7 8 9 8 2 0 6 -4 9 -8z m-3749 -197 c-12 -64 -48 -211
-55 -223 -5 -10 -53 -14 -194 -18 -139 -3 -195 -8 -216 -19 -16 -8 -31 -15
-35 -15 -11 0 -4 59 20 160 14 58 27 114 30 125 4 20 11 20 230 20 l225 0 -5
-30z m693 19 c5 -3 -38 -246 -45 -257 -2 -4 -95 -7 -206 -7 -111 0 -212 -2
-224 -6 -21 -6 -23 -3 -23 31 0 33 26 213 35 241 2 8 68 10 232 6 125 -2 230
-6 231 -8z m659 -84 c-11 -163 -16 -190 -42 -190 -12 0 -24 3 -28 6 -8 8 -257
5 -336 -5 l-63 -8 5 76 c4 42 9 108 13 146 l6 70 226 0 225 0 -6 -95z m690 86
c6 -4 6 -287 -1 -293 -4 -4 -14 1 -22 12 -13 19 -20 20 -156 12 -158 -9 -268
-2 -280 16 -4 7 -8 67 -8 134 l0 122 28 3 c23 4 434 -2 439 -6z m700 -81 c13
-107 16 -195 5 -195 -4 0 -16 6 -27 14 -16 11 -38 11 -123 2 -56 -6 -119 -11
-140 -10 -44 1 -156 14 -160 18 -1 2 -7 41 -12 87 -5 46 -12 105 -15 131 l-5
46 232 -1 233 -2 12 -90z m689 -5 c7 -52 15 -120 20 -150 7 -50 6 -54 -9 -42
-13 11 -59 13 -226 9 -190 -5 -211 -3 -215 11 -3 10 -12 62 -21 117 -8 55 -18
112 -21 128 l-6 27 234 -2 233 -3 11 -95z m693 38 c25 -77 51 -185 51 -215 0
-30 -26 -30 -57 -1 -13 12 -23 17 -23 11 0 -6 -64 -9 -175 -9 -159 1 -176 -1
-181 -16 -3 -10 -9 -18 -13 -18 -7 0 -61 260 -61 293 0 15 20 17 219 17 l219
0 21 -62z m172 -536 c12 -13 68 -315 61 -326 -4 -6 -7 -27 -7 -46 0 -31 -3
-35 -28 -36 -15 -1 -33 6 -40 14 -6 9 -7 13 -1 9 13 -7 54 36 54 58 0 12 -29
14 -194 11 -106 -2 -198 -6 -203 -9 -13 -8 -24 -47 -14 -47 12 0 11 -44 -2
-52 -7 -4 -22 -8 -34 -8 -21 0 -22 3 -15 53 11 80 8 122 -16 254 -12 66 -22
125 -22 130 0 10 452 5 461 -5z m-4451 -6 c0 -11 -28 -133 -52 -228 l-20 -77
-205 -3 -205 -3 -25 -30 -25 -30 6 83 c5 69 37 252 50 287 4 12 476 14 476 1z
m3422 -101 c9 -60 17 -137 17 -169 l1 -60 -33 32 c-21 20 -37 28 -45 23 -8 -5
-28 -6 -45 -4 -18 3 -36 5 -42 5 -221 -2 -1750 -4 -1970 -3 -395 2 -727 -7
-739 -20 -6 -5 -18 -9 -28 -9 -22 0 -23 22 -3 150 8 52 15 112 15 132 l0 38
1427 -3 1427 -2 18 -110z m-3523 -252 c1 9 5 17 10 17 11 0 21 -25 21 -56 0
-21 -4 -24 -38 -24 -26 0 -41 6 -49 20 -8 12 -9 21 -3 25 6 3 10 1 10 -5 0
-16 30 15 31 32 0 7 4 4 9 -7 7 -17 9 -17 9 -2z m-334 -23 c6 10 11 9 22 -5 7
-11 13 -13 13 -7 0 8 9 10 26 6 42 -11 124 -10 124 1 0 5 5 3 10 -5 5 -8 10
-10 10 -4 0 14 46 12 62 -4 9 -9 7 -12 -10 -12 -12 0 -22 6 -22 13 0 7 -3 8
-8 2 -10 -14 -245 -14 -254 0 -5 7 -8 7 -8 -1 0 -6 -7 -11 -17 -11 -13 0 -11
4 7 19 17 13 25 16 30 7 6 -8 10 -8 15 1z"/>
<path d="M3240 3631 c-64 -11 -16 -20 135 -23 128 -3 150 -1 150 12 0 12 -21
15 -125 16 -69 1 -141 -1 -160 -5z"/>
<path d="M3160 3610 c-12 -8 -11 -10 8 -10 12 0 22 5 22 10 0 13 -11 13 -30 0z"/>
<path d="M4542 3621 c-11 -7 -11 -9 2 -14 8 -3 18 -2 22 4 3 6 12 8 20 5 8 -3
14 -1 14 4 0 12 -40 13 -58 1z"/>
<path d="M4773 3210 c0 -30 2 -43 4 -27 2 15 2 39 0 55 -2 15 -4 2 -4 -28z"/>
<path d="M7293 3225 c0 -27 2 -38 4 -22 2 15 2 37 0 50 -2 12 -4 0 -4 -28z"/>
<path d="M1565 3730 c-3 -5 -1 -10 4 -10 6 0 11 5 11 10 0 6 -2 10 -4 10 -3 0
-8 -4 -11 -10z"/>
<path d="M1536 3694 c-18 -18 -20 -24 -6 -24 5 0 14 9 20 20 13 24 7 26 -14 4z"/>
<path d="M1495 3640 c-3 -5 -2 -10 4 -10 5 0 13 5 16 10 3 6 2 10 -4 10 -5 0
-13 -4 -16 -10z"/>
<path d="M5058 1783 c7 -3 16 -2 19 1 4 3 -2 6 -13 5 -11 0 -14 -3 -6 -6z"/>
</g>
</svg>
